<?xml version="1.0" encoding="iso-8859-1"?>
<!-- Uploaded to: SVG Repo, www.svgrepo.com, Generator: SVG Repo Mixer Tools -->
<svg fill="#000000" height="800px" width="800px" version="1.1" id="Capa_1" xmlns="http://www.w3.org/2000/svg" xmlns:xlink="http://www.w3.org/1999/xlink" 
	 viewBox="0 0 472 472" xml:space="preserve">
<path d="M396.625,456h-4.638c-27.449-32.71-51.398-68.051-71.627-105.655c1.859-1.465,3.057-3.731,3.057-6.282c0-4.418-3.582-8-8-8
	h-2.511c-9.981-19.746-18.961-40.084-26.907-60.966c-0.386-1.015-0.761-2.035-1.142-3.052c4.255-0.184,7.651-3.682,7.651-7.982
	c0-4.418-3.582-8-8-8H279.1c-20.342-58.98-31.997-120.634-34.743-183.76c4.137-0.308,7.399-3.754,7.399-7.97V40.25
	c0-4.391-3.539-7.952-7.919-7.996V8c0-4.418-3.582-8-8-8s-8,3.582-8,8v24.254c-4.381,0.044-7.92,3.605-7.92,7.996v24.082
	c0,4.216,3.263,7.662,7.4,7.97c-2.746,63.126-14.401,124.781-34.743,183.76h-5.406c-4.418,0-8,3.582-8,8
	c0,4.301,3.396,7.798,7.651,7.982c-0.381,1.017-0.756,2.036-1.142,3.052c-7.946,20.882-16.927,41.22-26.907,60.966h-2.511
	c-4.418,0-8,3.582-8,8c0,2.551,1.198,4.817,3.057,6.282c-20.23,37.604-44.178,72.945-71.628,105.655h-4.311c-4.418,0-8,3.582-8,8
	s3.582,8,8,8h8.039h64.361h7.142c4.418,0,8-3.582,8-8c0-3.992-2.927-7.291-6.749-7.893c3.978-40.455,38.187-72.17,79.67-72.17
	c41.5,0,75.719,31.741,79.674,72.219c-3.665,0.731-6.427,3.964-6.427,7.844c0,4.418,3.582,8,8,8h6.816h64.36h8.365
	c4.418,0,8-3.582,8-8S401.043,456,396.625,456z M235.837,148.082c5.756,36.743,14.56,72.814,26.362,107.98h-52.724
	C221.276,220.896,230.081,184.825,235.837,148.082z M200.629,280.787c1.104-2.901,2.183-5.81,3.245-8.724h63.925
	c1.062,2.914,2.141,5.823,3.245,8.724c7.181,18.873,15.207,37.302,24.013,55.276h-15.115c-7.113-14.064-13.773-28.527-19.813-43.061
	c-2.045-4.938-6.809-4.938-8.843-4.938l-32.351,0c-3.232,0-6.147,1.945-7.388,4.93c-6.042,14.541-12.701,29.004-19.816,43.07
	h-15.115C185.423,318.089,193.448,299.659,200.629,280.787z M262.071,336.063h-52.468c5.16-10.524,10.067-21.231,14.647-32
	c6.331,0,16.845,0,23.173,0C252.003,314.833,256.911,325.539,262.071,336.063z M331.569,456
	c-4.078-49.241-45.457-88.063-95.732-88.063S144.182,406.759,140.104,456h-39.7c26.026-32.357,48.783-67.116,68.106-103.938h28.289
	c0.001,0,0.002,0,0.003,0h78.22c0.007,0,0.014,0.001,0.022,0.001c0.008,0,0.017-0.001,0.025-0.001h28.094
	c19.323,36.822,42.08,71.58,68.106,103.938H331.569z"/>
</svg>